<svg xmlns="http://www.w3.org/2000/svg" width="172" height="172" viewBox="0 0 172 172">
  <g id="Group_109" data-name="Group 109" transform="translate(-1144 -1753)">
    <g id="lightbulbu" transform="translate(950.472 1753)">
      <g id="Vrstva_5" transform="translate(193.528 0)">
        <ellipse id="Ellipse_62" data-name="Ellipse 62" cx="86" cy="86" rx="86" ry="86" fill="#fbc117"/>
      </g>
    </g>
    <g id="Vrstva_8" data-name="Vrstva 8" transform="translate(1169.309 1811.753)">
      <path id="Union_1" data-name="Union 1" d="M-14646.913-10498.3a1.331,1.331,0,0,1-1.331-1.158,91.353,91.353,0,0,1-.557-17.189c.1-1.756.251-3.261.369-4.581a32.52,32.52,0,0,0,.263-4.787,1.331,1.331,0,0,1-1.008-.069c-1.97-.974-3.647-1.2-4.5-.612a3.025,3.025,0,0,0-.9,2c-.737,4.153-.854,14.188-.853,20.224,0,2.362.02,4.113.026,4.659a1.331,1.331,0,0,1-1.331,1.332l-.052.029a1.335,1.335,0,0,1-1.335-1.335v-.038c0-.812-.012-2.41-.013-4.447v-.2c0-6.225.1-16.327.879-20.693a5.5,5.5,0,0,1,2.051-3.7c1.953-1.374,4.552-.745,6.339,0-.022-.047-.046-.094-.069-.141-1.771-3.463-6.295-5.728-13.458-6.657a1.324,1.324,0,0,1-.8-.425,8.617,8.617,0,0,1-3.075.569,8.577,8.577,0,0,1-4.933-1.551,27.017,27.017,0,0,0-6.6,2.362c-3.743,1.947-7,6.417-13.992,16.378a3.811,3.811,0,0,0-.867,2.327c0,1.029.72,1.812,1.825,3.01,5.47,5.927,7.1,7.191,8.638,8.2,1.841,1.225,2.556,1.479,3.249,1.424a3.987,3.987,0,0,0,3.157-1.7c.306-.719-.225-2.209-1.877-4.168l-.107-.117a34.825,34.825,0,0,0-7.069-5.979,1.329,1.329,0,0,1-.373-1.837c7.162-10.891,8.642-11.237,10.079-10.519s1.092,2.025.705,4.739c-.2,1.332-.454,3.076-.639,5.326s-.32,4.672-.306,6.988c2.062,2.545,2.8,4.847,2.036,6.657a6.454,6.454,0,0,1-5.54,3.33l-.133-.081a8.235,8.235,0,0,1-4.646-1.862c-1.689-1.118-3.448-2.464-9.121-8.615a7.419,7.419,0,0,1-2.525-4.7,6.408,6.408,0,0,1,1.331-3.994c6.749-9.6,10.463-14.885,14.951-17.216a29.362,29.362,0,0,1,5.632-2.166,8.571,8.571,0,0,1-1.494-4.849,8.617,8.617,0,0,1,8.615-8.615,8.616,8.616,0,0,1,8.615,8.615q0,.341-.026.675a33.479,33.479,0,0,1,13.36.825,8.632,8.632,0,0,1,2.492-5.339,8.632,8.632,0,0,1,9.408-1.866,8.63,8.63,0,0,1,5.235,6.753,1.383,1.383,0,0,1,.26-.062,33.469,33.469,0,0,1,13.845-1.084,8.617,8.617,0,0,1,8.615-8.517,8.616,8.616,0,0,1,8.615,8.615,8.6,8.6,0,0,1-1.911,5.4,34.129,34.129,0,0,1,7.609,3.2c4.709,2.662,8.121,7.538,14.9,17.189a6.455,6.455,0,0,1,1.331,3.994,7.322,7.322,0,0,1-2.529,4.7c-5.673,6.152-7.428,7.5-9.121,8.615a8.143,8.143,0,0,1-4.632,1.959h-.147a6.414,6.414,0,0,1-5.536-3.33c-.76-1.8,0-4.1,2.036-6.657,0-2.316-.092-4.658-.307-6.989s-.438-3.913-.638-5.325c-.387-2.663-.586-4.086.7-4.739s2.918-.372,10.08,10.519a1.333,1.333,0,0,1-.373,1.837,34.622,34.622,0,0,0-7.069,5.978l-.107.118c-1.652,1.959-2.184,3.448-1.877,4.168a3.987,3.987,0,0,0,3.157,1.7c.715,0,1.408-.2,3.245-1.424,1.545-1.015,3.172-2.265,8.641-8.2,1.106-1.2,1.785-1.984,1.826-3.01a3.749,3.749,0,0,0-.867-2.316c-6.55-9.319-9.839-14-14.032-16.415a31.671,31.671,0,0,0-8.372-3.29,1.362,1.362,0,0,1-.412-.169,8.591,8.591,0,0,1-4.209,1.1,8.588,8.588,0,0,1-3.783-.872c-8.48,1.038-13.727,3.515-15.59,7.37-.042.086-.081.171-.118.257,1.787-.772,4.493-1.491,6.509-.072a5.5,5.5,0,0,1,2.051,3.7c1.051,5.887.9,22.181.867,25.378a1.337,1.337,0,0,1-1.336,1.306,1.334,1.334,0,0,1-1.331-1.335c0-1.944.2-19.115-.822-24.884a3.06,3.06,0,0,0-.959-2c-.852-.586-2.53-.357-4.514.612a1.337,1.337,0,0,1-1.074.121,38.048,38.048,0,0,0,.233,4.485c.106,1.331.254,2.943.347,4.82a99.336,99.336,0,0,1-.572,17.175,1.329,1.329,0,0,1-1.316,1.158h-.162a1.333,1.333,0,0,1-.889-.5,1.333,1.333,0,0,1-.27-.984,97.975,97.975,0,0,0,.546-16.7c-.093-1.848-.226-3.393-.343-4.739-.336-3.994-.535-6.295.756-8.958,2.07-4.285,7.152-7.133,15.111-8.487a8.577,8.577,0,0,1-1.525-2.769,30.6,30.6,0,0,0-9.031-.089,29.8,29.8,0,0,0-4.5.959,1.166,1.166,0,0,1-.372.081,1.333,1.333,0,0,1-.645-.066,8.618,8.618,0,0,1-8.517,7.311,8.627,8.627,0,0,1-7.98-5.322,8.567,8.567,0,0,1-.412-1.255,1.27,1.27,0,0,1-.193-.014,30.661,30.661,0,0,0-13.981-.8,1.116,1.116,0,0,1-.125.015,8.654,8.654,0,0,1-1.806,2.6c7.048,1.25,11.657,3.883,13.647,7.851,1.413,2.767,1.158,5.326.786,9.239-.122,1.331-.266,2.77-.373,4.5a89.751,89.751,0,0,0,.558,16.681,1.334,1.334,0,0,1-.266.988,1.351,1.351,0,0,1-.893.506Zm54.746-23.419c.2,1.331.453,3.153.667,5.429.133,1.494.214,3,.266,4.488a44,44,0,0,1,4.274-3.382,72.347,72.347,0,0,0-5.3-7.243A6.176,6.176,0,0,0-14592.167-10521.718Zm-90.1,4.82v.066a41.425,41.425,0,0,1,4.274,3.382c0-1.493.133-3,.266-4.488.214-2.275.469-4.1.668-5.418a1.9,1.9,0,0,1,.092-.719A72.715,72.715,0,0,0-14682.263-10516.9Zm40.568-25.042a5.967,5.967,0,0,0,5.96,5.975,5.962,5.962,0,0,0,5.971-5.963,5.969,5.969,0,0,0-5.952-5.9v-.066h-.007A5.971,5.971,0,0,0-14641.694-10541.939Zm31.274-2.2a5.949,5.949,0,0,0,5.953,5.949,5.948,5.948,0,0,0,5.948-5.949,5.963,5.963,0,0,0-5.948-5.952A5.95,5.95,0,0,0-14610.42-10544.138Zm-61.8,0a5.948,5.948,0,0,0,5.948,5.949,5.952,5.952,0,0,0,5.953-5.949,5.968,5.968,0,0,0-5.953-5.952A5.948,5.948,0,0,0-14672.22-10544.138Z" transform="translate(14695.309 10552.753)" fill="#121212"/>
    </g>
  </g>
</svg>
